<svg version="1.2" xmlns="http://www.w3.org/2000/svg" viewBox="0 0 640 640" width="640" height="640"><style>.a{fill:#47a992;stroke:#fff;stroke-miterlimit:100}.b{fill:#e4eae9;stroke:#fff;stroke-miterlimit:100}.c{fill:#e4eae9;stroke:#e4eae9;stroke-miterlimit:100}.d{fill:#47a992}</style><path class="a" d="m320 640c-177 0-320-143-320-320 0-177 143-320 320-320 177 0 320 143 320 320 0 177-143 320-320 320z"/><path class="b" d="m320 608c-159.3 0-288-128.7-288-288 0-159.3 128.7-288 288-288 159.3 0 288 128.7 288 288 0 159.3-128.7 288-288 288z"/><path class="c" d="m280 0h68v640h-68z"/><path class="d" d="m188.7 338.8l-26.8-70.5-26.8 70.5zm-93.6 52.2l55.6-141.6h22.4l55.6 141.6h-20.5l-13.3-36.3h-65.8l-13.2 36.3zm154.9 0v-141.6h29.3l37.3 96.4 37.4-96.4h29.3v141.6h-19.2v-124.3l-37.6 97.1h-19.8l-37.6-97.1v124.3zm172.6 0v-141.6h29.3l37.3 96.4 37.4-96.4h29.3v141.6h-19.2v-124.3l-37.6 97.1h-19.8l-37.6-97.1v124.3z"/></svg>