<svg xmlns="http://www.w3.org/2000/svg" width="1080" height="608" viewBox="0 0 1080 608"><rect width="100%" height="100%" fill="#EEE"/><path fill="#31343C" d="M275.24 324.295q1.13 0 2.01.87l5.46 5.93q-4.53 5.61-11.15 8.6-6.62 2.98-15.89 2.98-8.29 0-14.91-2.83-6.62-2.83-11.3-7.88-4.69-5.05-7.19-12.05-2.5-7-2.5-15.29 0-8.4 2.68-15.38t7.55-12.02q4.86-5.05 11.61-7.86 6.75-2.8 14.94-2.8 8.13 0 14.44 2.67 6.31 2.68 10.74 7.01l-4.64 6.44q-.41.61-1.05 1.08-.65.46-1.78.46-.77 0-1.6-.44-.82-.43-1.8-1.08-.98-.64-2.26-1.41-1.29-.78-2.99-1.42-1.7-.64-3.94-1.08-2.24-.44-5.18-.44-4.99 0-9.14 1.78-4.14 1.77-7.13 5.15-2.99 3.37-4.64 8.24-1.64 4.86-1.64 11.1 0 6.28 1.77 11.17 1.78 4.89 4.82 8.24 3.04 3.35 7.16 5.13 4.12 1.77 8.86 1.77 2.83 0 5.12-.31t4.22-.98q1.93-.67 3.66-1.72 1.72-1.06 3.42-2.6.52-.47 1.09-.75.56-.28 1.18-.28Zm25.03-14.94h24q0-2.47-.7-4.66-.69-2.19-2.08-3.83-1.39-1.65-3.53-2.6-2.14-.96-4.97-.96-5.51 0-8.68 3.14-3.17 3.15-4.04 8.91Zm32.44 7.68h-32.7q.31 4.07 1.44 7.03 1.14 2.96 2.99 4.89 1.85 1.93 4.4 2.88 2.55.96 5.64.96t5.33-.73q2.24-.72 3.92-1.59 1.67-.88 2.93-1.6 1.26-.72 2.45-.72 1.6 0 2.37 1.19l3.65 4.63q-2.11 2.47-4.73 4.15-2.63 1.67-5.49 2.67-2.86 1.01-5.82 1.42-2.96.41-5.74.41-5.51 0-10.25-1.83-4.74-1.82-8.24-5.4t-5.51-8.86q-2.01-5.28-2.01-12.23 0-5.41 1.75-10.17 1.75-4.77 5.02-8.3 3.27-3.52 7.99-5.58 4.71-2.06 10.63-2.06 5 0 9.22 1.59 4.22 1.6 7.26 4.66 3.04 3.07 4.77 7.52 1.72 4.46 1.72 10.17 0 2.89-.62 3.89-.62 1.01-2.37 1.01Zm23.54-25.7.87 4.17q1.6-1.6 3.38-2.96 1.77-1.37 3.76-2.32 1.98-.95 4.25-1.49 2.26-.54 4.94-.54 4.33 0 7.67 1.46 3.35 1.47 5.59 4.12 2.24 2.66 3.4 6.34 1.16 3.68 1.16 8.11v33.63h-12.72v-33.63q0-4.84-2.22-7.49-2.21-2.66-6.74-2.66-3.3 0-6.18 1.5-2.89 1.49-5.46 4.07v38.21h-12.72v-52.84H353q2.48 0 3.25 2.32Zm64.68 51.34q-6.9 0-10.58-3.88-3.68-3.89-3.68-10.74v-29.51h-5.41q-1.03 0-1.75-.67t-.72-2.01v-5.05l8.5-1.39 2.67-14.42q.26-1.03.98-1.59.72-.57 1.86-.57h6.59v16.63h14.11v9.07h-14.11v28.63q0 2.47 1.21 3.86 1.21 1.4 3.32 1.4 1.18 0 1.98-.29.8-.28 1.39-.59.6-.31 1.06-.59.46-.29.93-.29.56 0 .92.29.36.28.78.85l3.81 6.18q-2.78 2.31-6.39 3.5-3.6 1.18-7.47 1.18Zm31.93-50.47.78 5.98q2.47-4.74 5.87-7.44 3.4-2.71 8.03-2.71 3.66 0 5.87 1.6l-.82 9.53q-.26.92-.75 1.31t-1.31.39q-.77 0-2.29-.26t-2.97-.26q-2.11 0-3.75.62-1.65.62-2.97 1.78-1.31 1.15-2.31 2.8-1.01 1.65-1.88 3.76v32.55h-12.72v-52.84h7.46q1.96 0 2.73.7.78.69 1.03 2.49Zm55.11 36v-8.91q-5.51.26-9.27.96-3.76.69-6.03 1.77-2.26 1.08-3.24 2.53-.98 1.44-.98 3.14 0 3.34 1.98 4.79 1.99 1.44 5.18 1.44 3.91 0 6.77-1.42 2.86-1.41 5.59-4.3Zm-26.88-27.76-2.27-4.06q9.11-8.35 21.94-8.35 4.63 0 8.29 1.52 3.66 1.52 6.18 4.22 2.52 2.71 3.84 6.47 1.31 3.76 1.31 8.24v33.37h-5.77q-1.8 0-2.78-.54-.98-.54-1.54-2.19l-1.14-3.81q-2.01 1.8-3.91 3.17-1.91 1.36-3.97 2.29-2.06.93-4.4 1.41-2.34.49-5.18.49-3.34 0-6.18-.9-2.83-.9-4.89-2.7-2.06-1.8-3.19-4.48-1.13-2.68-1.13-6.23 0-2.01.67-3.99.66-1.99 2.18-3.79t3.94-3.4q2.42-1.6 5.95-2.78 3.53-1.18 8.22-1.93 4.68-.75 10.71-.9v-3.09q0-5.31-2.27-7.86-2.26-2.55-6.54-2.55-3.09 0-5.12.73-2.04.72-3.58 1.62-1.55.9-2.81 1.62-1.26.72-2.81.72-1.33 0-2.26-.69-.93-.7-1.49-1.63Zm51.39-35.12h12.72v76.53h-12.72v-76.53Zm25.86 23.69h12.77v52.84h-12.77v-52.84Zm14.52-15.4q0 1.65-.67 3.09t-1.78 2.53q-1.11 1.08-2.6 1.72-1.49.64-3.19.64-1.65 0-3.12-.64-1.47-.64-2.55-1.72-1.08-1.09-1.72-2.53-.65-1.44-.65-3.09 0-1.7.65-3.19.64-1.49 1.72-2.58 1.08-1.08 2.55-1.72 1.47-.64 3.12-.64 1.7 0 3.19.64t2.6 1.72q1.11 1.09 1.78 2.58.67 1.49.67 3.19Zm46.35 21.12-2.89 4.58q-.51.82-1.08 1.16-.56.33-1.44.33-.93 0-1.98-.51-1.06-.52-2.45-1.16-1.39-.64-3.17-1.16-1.77-.51-4.19-.51-3.76 0-5.9 1.59-2.14 1.6-2.14 4.17 0 1.7 1.11 2.86t2.94 2.04q1.82.87 4.14 1.57 2.32.69 4.71 1.52 2.4.82 4.72 1.88 2.31 1.05 4.14 2.68 1.83 1.62 2.94 3.88 1.1 2.27 1.1 5.46 0 3.81-1.36 7.03t-4.04 5.56q-2.68 2.35-6.62 3.66t-9.09 1.31q-2.73 0-5.33-.49-2.6-.48-5-1.36-2.39-.88-4.42-2.06-2.04-1.18-3.58-2.58l2.93-4.84q.57-.87 1.34-1.34.77-.46 1.96-.46 1.18 0 2.24.67 1.05.67 2.44 1.44 1.39.78 3.27 1.44 1.88.67 4.77.67 2.26 0 3.89-.54 1.62-.54 2.67-1.41 1.06-.88 1.55-2.04.49-1.16.49-2.39 0-1.86-1.11-3.04t-2.93-2.06q-1.83-.88-4.18-1.57-2.34-.7-4.79-1.52-2.44-.82-4.78-1.93-2.35-1.11-4.18-2.81-1.82-1.7-2.93-4.17-1.11-2.47-1.11-5.97 0-3.25 1.29-6.18 1.29-2.94 3.78-5.13 2.5-2.19 6.24-3.5 3.73-1.31 8.62-1.31 5.46 0 9.94 1.8 4.48 1.8 7.47 4.74Zm20.19 14.62h24q0-2.47-.7-4.66t-2.09-3.83q-1.39-1.65-3.52-2.6-2.14-.96-4.97-.96-5.51 0-8.68 3.14-3.17 3.15-4.04 8.91Zm32.44 7.68h-32.7q.31 4.07 1.44 7.03t2.99 4.89q1.85 1.93 4.4 2.88 2.55.96 5.64.96t5.33-.73q2.24-.72 3.91-1.59 1.68-.88 2.94-1.6 1.26-.72 2.45-.72 1.59 0 2.37 1.19l3.65 4.63q-2.11 2.47-4.74 4.15-2.62 1.67-5.48 2.67-2.86 1.01-5.82 1.42-2.96.41-5.74.41-5.51 0-10.25-1.83-4.74-1.82-8.24-5.4t-5.51-8.86q-2.01-5.28-2.01-12.23 0-5.41 1.75-10.17 1.75-4.77 5.02-8.3 3.27-3.52 7.98-5.58 4.72-2.06 10.64-2.06 4.99 0 9.22 1.59 4.22 1.6 7.26 4.66 3.04 3.07 4.76 7.52 1.73 4.46 1.73 10.17 0 2.89-.62 3.89-.62 1.01-2.37 1.01Zm45.68 9.16v-23.69q-2.16-2.62-4.71-3.7-2.55-1.09-5.49-1.09-2.88 0-5.2 1.09-2.31 1.08-3.96 3.27-1.65 2.18-2.53 5.56-.87 3.37-.87 7.95 0 4.64.75 7.86.74 3.22 2.13 5.25 1.39 2.04 3.4 2.94 2.01.9 4.48.9 3.97 0 6.75-1.65t5.25-4.69Zm0-60.87h12.72v76.53h-7.77q-2.53 0-3.2-2.32l-1.08-5.1q-3.19 3.66-7.34 5.93-4.14 2.26-9.65 2.26-4.33 0-7.93-1.8-3.61-1.8-6.21-5.23-2.6-3.42-4.02-8.47-1.41-5.05-1.41-11.54 0-5.87 1.59-10.91 1.6-5.05 4.59-8.76 2.98-3.71 7.15-5.79 4.18-2.09 9.38-2.09 4.43 0 7.57 1.39 3.14 1.39 5.61 3.76v-27.86Zm82.3 65.35q4.02 0 7.18-1.33 3.17-1.34 5.33-3.76 2.17-2.42 3.33-5.88 1.15-3.45 1.15-7.72v-44.6h13.86v44.6q0 6.64-2.14 12.28t-6.13 9.74q-3.99 4.09-9.71 6.38-5.71 2.29-12.87 2.29-7.21 0-12.93-2.29-5.71-2.29-9.71-6.38-3.99-4.1-6.12-9.74-2.14-5.64-2.14-12.28v-44.6h13.85v44.55q0 4.27 1.16 7.72t3.35 5.9q2.19 2.45 5.35 3.79 3.17 1.33 7.19 1.33Zm60.41-63.29v74.47h-13.91v-74.47h13.91Z"/></svg>